<svg width="180" height="152" viewBox="0 0 180 152" fill="none" xmlns="http://www.w3.org/2000/svg">
<path d="M180 2.00121L179.398 1.28809L118.849 52L119.5 52.6714L180 2.00121Z" fill="black" fill-opacity="0.2"/>
<path fill-rule="evenodd" clip-rule="evenodd" d="M56.8454 103.929L0.300964 151.287L0.902806 152L57.3874 104.692L56.8454 103.929Z" fill="black" fill-opacity="0.2"/>
<path fill-rule="evenodd" clip-rule="evenodd" d="M0.70282 1L60.8 51.333L60.1432 52L0.100983 1.71313L0.70282 1ZM123.34 103.712L179.8 150.999L179.198 151.712L122.779 104.459L123.34 103.712Z" fill="black" fill-opacity="0.2"/>
<path fill-rule="evenodd" clip-rule="evenodd" d="M179.097 0L117.831 51.3116L118.453 52.008L179.699 0.713126L179.097 0ZM0.601842 150.712L0 149.999L56.1159 103L56.6867 103.739L0.601842 150.712ZM0.467617 0.713272L61.3486 51.6774L61.9998 51.0056L1.06928 0L0.467617 0.713272ZM123.5 103.705L179.097 150.246L179.699 149.533L124.112 103L123.5 103.705Z" fill="white" fill-opacity="0.3"/>
<g filter="url(#filter0_d_2496_43562)">
<path d="M33.05 75.4659V57.0755C33.05 56.8545 33.2207 56.6846 33.4425 56.6846H43.2188C43.4406 56.6846 43.6112 56.8545 43.6112 57.0755V75.4659C43.6112 75.6868 43.4406 75.8568 43.2188 75.8568H33.4425C33.2377 75.8568 33.05 75.6868 33.05 75.4659Z" fill="white" fill-opacity="0.4"/>
<path d="M50.3162 75.4659V57.0755C50.3162 56.8545 50.4868 56.6846 50.7086 56.6846H60.4849C60.7067 56.6846 60.8774 56.8545 60.8774 57.0755V75.4659C60.8774 75.6868 60.7067 75.8568 60.4849 75.8568H50.7086C50.4868 75.8568 50.3162 75.6698 50.3162 75.4659Z" fill="white" fill-opacity="0.4"/>
<path d="M79.4915 56.668C79.7133 56.668 79.8839 56.8379 79.8839 57.0589V71.591C79.8839 73.0357 79.7815 74.4635 79.5938 75.8572C78.1265 86.4291 71.2848 95.3013 61.9009 99.6355C61.6961 99.7205 61.4573 99.6355 61.372 99.4315L57.3795 90.5423C57.2942 90.3383 57.3795 90.1174 57.5843 90.0154C64.5284 86.752 69.3227 79.7324 69.3227 71.591V57.0589C69.3227 56.8379 69.4933 56.668 69.7151 56.668H79.4915V56.668Z" fill="white" fill-opacity="0.4"/>
<path d="M123.801 56.8885L123.801 60.3898C123.801 60.5258 123.92 60.6448 124.057 60.6448H130.352C130.199 63.2113 129.892 68.3612 129.823 69.755C129.67 72.6274 128.97 74.9219 127.691 76.7576C126.548 78.3893 124.961 79.63 122.879 80.5308C122.743 80.5818 122.692 80.7348 122.743 80.8708L124.193 84.0151C124.244 84.1341 124.398 84.2021 124.534 84.1511C130.131 81.7546 133.389 76.9445 133.765 70.4858L134.345 60.6618H144.667V83.5902C144.667 83.7262 144.787 83.8452 144.923 83.8452H148.438C148.574 83.8452 148.694 83.7262 148.694 83.5902V56.9055C148.694 56.7695 148.574 56.6505 148.438 56.6505H124.057C123.92 56.6336 123.801 56.7525 123.801 56.8885Z" fill="white" fill-opacity="0.4"/>
<path d="M116.447 71.2001H105.562V70.0103H116.089C116.225 70.0103 116.345 69.8914 116.345 69.7554V67.6478C116.345 67.5118 116.225 67.3929 116.089 67.3929H105.562V66.2031H116.089C116.225 66.2031 116.345 66.0841 116.345 65.9481V56.9229C116.345 56.7869 116.225 56.668 116.089 56.668H91.6904C91.5539 56.668 91.4345 56.7869 91.4345 56.9229V65.9481C91.4345 66.0841 91.5539 66.2031 91.6904 66.2031H102.217V67.3929H91.6904C91.5539 67.3929 91.4345 67.5118 91.4345 67.6478V69.7554C91.4345 69.8914 91.5539 70.0103 91.6904 70.0103H102.217V71.2001H91.3321C91.1956 71.2001 91.0762 71.3191 91.0762 71.4551V73.5626C91.0762 73.6986 91.1956 73.8176 91.3321 73.8176H116.447C116.583 73.8176 116.703 73.6986 116.703 73.5626V71.4551C116.703 71.3021 116.583 71.2001 116.447 71.2001ZM113 63.5516H105.579V59.2515H113V63.5516ZM94.7956 63.5516V59.2515H102.217V63.5516H94.7956Z" fill="white" fill-opacity="0.4"/>
<path d="M105.562 80.2587H116.328C116.464 80.2587 116.583 80.1397 116.583 80.0038V77.8962C116.583 77.7602 116.464 77.6412 116.328 77.6412H105.562V74.8028C105.562 74.6668 105.442 74.5479 105.306 74.5479H102.473C102.337 74.5479 102.218 74.6668 102.218 74.8028V77.6412H91.4516C91.3151 77.6412 91.1957 77.7602 91.1957 77.8962V80.0038C91.1957 80.1397 91.3151 80.2587 91.4516 80.2587H102.218V81.2105H90.6326C90.4961 81.2105 90.3767 81.3295 90.3767 81.4655V83.5731C90.3767 83.709 90.4961 83.828 90.6326 83.828H117.164C117.3 83.828 117.419 83.709 117.419 83.5731V81.4655C117.419 81.3295 117.3 81.2105 117.164 81.2105H105.579V80.2587H105.562Z" fill="white" fill-opacity="0.4"/>
<path d="M99.4702 60.2202H96.8598C96.7745 60.2202 96.7233 60.2882 96.7403 60.3732L97.1669 62.4978C97.1839 62.5658 97.2351 62.5997 97.2863 62.5997H99.8967C99.982 62.5997 100.033 62.5318 100.016 62.4468L99.5896 60.3222C99.5896 60.2542 99.5384 60.2202 99.4702 60.2202Z" fill="white" fill-opacity="0.4"/>
<path d="M110.612 62.4978L111.039 60.3732C111.056 60.2882 110.987 60.2202 110.919 60.2202H108.309C108.24 60.2202 108.189 60.2712 108.189 60.3222L107.763 62.4468C107.746 62.5318 107.814 62.5997 107.882 62.5997H110.493C110.561 62.5997 110.612 62.5658 110.612 62.4978Z" fill="white" fill-opacity="0.4"/>
<path d="M113.359 76.9274H115.969C116.054 76.9274 116.105 76.8594 116.088 76.7744L115.662 74.6498C115.645 74.5818 115.594 74.5479 115.542 74.5479H112.932C112.847 74.5479 112.796 74.6158 112.813 74.7008L113.239 76.8254C113.239 76.8764 113.29 76.9274 113.359 76.9274Z" fill="white" fill-opacity="0.4"/>
<path d="M108.309 76.9274H110.919C111.004 76.9274 111.055 76.8594 111.038 76.7744L110.612 74.6498C110.595 74.5818 110.544 74.5479 110.492 74.5479H107.882C107.797 74.5479 107.745 74.6158 107.763 74.7008L108.189 76.8254C108.189 76.8764 108.24 76.9274 108.309 76.9274Z" fill="white" fill-opacity="0.4"/>
<path d="M94.5565 76.8083L94.9831 74.6837C95.0002 74.5987 94.9319 74.5308 94.8637 74.5308H92.2532C92.185 74.5308 92.1338 74.5818 92.1338 74.6327L91.7072 76.7573C91.6902 76.8423 91.7584 76.9103 91.8267 76.9103H94.4371C94.4883 76.9273 94.5395 76.8763 94.5565 76.8083Z" fill="white" fill-opacity="0.4"/>
<path d="M99.6073 76.8083L100.034 74.6837C100.051 74.5987 99.9827 74.5308 99.9144 74.5308H97.304C97.2358 74.5308 97.1846 74.5818 97.1846 74.6327L96.758 76.7573C96.741 76.8423 96.8092 76.9103 96.8775 76.9103H99.4879C99.5391 76.9273 99.5903 76.8763 99.6073 76.8083Z" fill="white" fill-opacity="0.4"/>
</g>
<path d="M139.375 94.932C137.976 94.932 136.867 93.7252 137.021 92.3145C137.14 91.2267 138.044 90.3429 139.154 90.2409C139.853 90.1729 140.484 90.4109 140.962 90.8358C141.013 90.8868 141.099 90.8868 141.133 90.8358L141.815 90.1559C141.866 90.1049 141.866 90.0199 141.815 89.9689C141.081 89.2891 140.041 88.9152 138.915 89.0511C137.311 89.2551 136.014 90.5638 135.826 92.1785C135.588 94.3371 137.26 96.1557 139.375 96.1557C140.314 96.1557 141.167 95.7988 141.815 95.2039C141.866 95.1529 141.866 95.0679 141.815 95.017L141.133 94.3371C141.081 94.2861 141.013 94.2861 140.962 94.3371C140.536 94.694 139.972 94.932 139.375 94.932Z" fill="black" fill-opacity="0.25"/>
<path d="M147.326 94.932C145.926 94.932 144.817 93.7252 144.971 92.3145C145.09 91.2267 145.995 90.3429 147.104 90.2409C147.803 90.1729 148.435 90.4109 148.912 90.8358C148.963 90.8868 149.049 90.8868 149.083 90.8358L149.765 90.1559C149.817 90.1049 149.817 90.0199 149.765 89.9689C149.032 89.2891 147.991 88.9152 146.865 89.0511C145.261 89.2551 143.964 90.5638 143.777 92.1785C143.538 94.3371 145.21 96.1557 147.326 96.1557C148.264 96.1557 149.117 95.7988 149.765 95.2039C149.817 95.1529 149.817 95.0679 149.765 95.017L149.083 94.3371C149.032 94.2861 148.963 94.2861 148.912 94.3371C148.486 94.694 147.94 94.932 147.326 94.932Z" fill="black" fill-opacity="0.25"/>
<path d="M134.069 96.1382H133.181C133.113 96.1382 133.045 96.0872 133.045 96.0022V95.1184C133.045 95.0504 133.096 94.9824 133.181 94.9824H134.069C134.137 94.9824 134.205 95.0334 134.205 95.1184V96.0022C134.205 96.0702 134.137 96.1382 134.069 96.1382Z" fill="black" fill-opacity="0.25"/>
<path d="M127.995 89.0166C126.016 89.0166 124.412 90.6143 124.412 92.5859C124.412 94.5575 126.016 96.1552 127.995 96.1552C129.974 96.1552 131.578 94.5575 131.578 92.5859C131.578 90.6143 129.974 89.0166 127.995 89.0166ZM127.995 94.9654C126.681 94.9654 125.623 93.9116 125.623 92.6029C125.623 91.2941 126.681 90.2404 127.995 90.2404C129.309 90.2404 130.367 91.2941 130.367 92.6029C130.367 93.8946 129.309 94.9654 127.995 94.9654Z" fill="black" fill-opacity="0.25"/>
<path d="M112.281 89.1187H109.705C109.637 89.1187 109.568 89.1696 109.568 89.2546V95.9173C109.568 95.9853 109.62 96.0533 109.705 96.0533H112.384C114.363 96.0533 115.949 94.4046 115.864 92.416C115.762 90.5634 114.158 89.1187 112.281 89.1187ZM112.384 94.9315H110.729V90.2574H112.384C113.629 90.2574 114.704 91.3622 114.704 92.586C114.687 93.8267 113.629 94.9315 112.384 94.9315Z" fill="black" fill-opacity="0.25"/>
<path d="M122.399 96.1556H123.372C123.457 96.1556 123.525 96.0536 123.491 95.9686L120.556 89.085C120.539 89.034 120.488 89 120.437 89H119.754C119.703 89 119.652 89.034 119.635 89.085L116.7 95.9686C116.666 96.0536 116.734 96.1556 116.82 96.1556H117.792C117.844 96.1556 117.895 96.1216 117.912 96.0706L118.748 94.116H121.444L122.28 96.0706C122.314 96.1386 122.348 96.1556 122.399 96.1556ZM119.226 93.0112L120.113 90.9376L121 93.0112H119.226Z" fill="black" fill-opacity="0.25"/>
<path d="M104.058 89.0166C102.078 89.0166 100.475 90.6143 100.475 92.5859C100.475 94.5575 102.078 96.1552 104.058 96.1552C106.037 96.1552 107.641 94.5575 107.641 92.5859C107.641 90.6143 106.037 89.0166 104.058 89.0166ZM104.058 94.9484C102.744 94.9484 101.686 93.8946 101.686 92.5859C101.686 91.2772 102.744 90.2234 104.058 90.2234C105.371 90.2234 106.429 91.2772 106.429 92.5859C106.429 93.8946 105.371 94.9484 104.058 94.9484Z" fill="black" fill-opacity="0.25"/>
<path d="M97.9834 89.0506L95.0147 92.008L92.046 89.0506C92.0289 89.0336 91.9948 89.0166 91.9607 89.0166H91.6365C91.5682 89.0166 91.5 89.0676 91.5 89.1526V96.0362C91.5 96.1042 91.5512 96.1722 91.6365 96.1722H92.6431C92.7114 96.1722 92.7796 96.1212 92.7796 96.0362V91.5661L94.9465 93.7247C94.9976 93.7757 95.083 93.7757 95.1341 93.7247L97.301 91.5661V96.0362C97.301 96.1042 97.3522 96.1722 97.4375 96.1722H98.4441C98.5124 96.1722 98.5806 96.1212 98.5806 96.0362V89.1526C98.5806 89.0846 98.5294 89.0166 98.4441 89.0166H98.1199C98.0517 89.0166 98.0176 89.0336 97.9834 89.0506Z" fill="black" fill-opacity="0.25"/>
<path d="M138.304 94.1454C136.905 94.1454 135.796 92.9386 135.95 91.5279C136.069 90.4401 136.973 89.5563 138.082 89.4543C138.782 89.3863 139.413 89.6242 139.891 90.0492C139.942 90.1002 140.027 90.1002 140.061 90.0492L140.744 89.3693C140.795 89.3183 140.795 89.2333 140.744 89.1823C140.01 88.5025 138.969 88.1285 137.843 88.2645C136.24 88.4685 134.943 89.7772 134.755 91.3919C134.516 93.5505 136.188 95.3691 138.304 95.3691C139.242 95.3691 140.095 95.0122 140.744 94.4173C140.795 94.3663 140.795 94.2813 140.744 94.2303L140.061 93.5505C140.01 93.4995 139.942 93.4995 139.891 93.5505C139.464 93.9074 138.901 94.1454 138.304 94.1454Z" fill="white" fill-opacity="0.4"/>
<path d="M146.254 94.1454C144.855 94.1454 143.746 92.9386 143.9 91.5279C144.019 90.4401 144.923 89.5563 146.032 89.4543C146.732 89.3863 147.363 89.6242 147.841 90.0492C147.892 90.1002 147.977 90.1002 148.012 90.0492L148.694 89.3693C148.745 89.3183 148.745 89.2333 148.694 89.1823C147.96 88.5025 146.92 88.1285 145.794 88.2645C144.19 88.4685 142.893 89.7772 142.705 91.3919C142.467 93.5505 144.139 95.3691 146.254 95.3691C147.193 95.3691 148.046 95.0122 148.694 94.4173C148.745 94.3663 148.745 94.2813 148.694 94.2303L148.012 93.5505C147.96 93.4995 147.892 93.4995 147.841 93.5505C147.414 93.9074 146.868 94.1454 146.254 94.1454Z" fill="white" fill-opacity="0.4"/>
<path d="M132.998 95.3516H132.111C132.042 95.3516 131.974 95.3006 131.974 95.2156V94.3318C131.974 94.2638 132.025 94.1958 132.111 94.1958H132.998C133.066 94.1958 133.134 94.2468 133.134 94.3318V95.2156C133.134 95.2836 133.066 95.3516 132.998 95.3516Z" fill="white" fill-opacity="0.4"/>
<path d="M126.924 88.23C124.945 88.23 123.341 89.8277 123.341 91.7993C123.341 93.7709 124.945 95.3686 126.924 95.3686C128.903 95.3686 130.507 93.7709 130.507 91.7993C130.507 89.8277 128.903 88.23 126.924 88.23ZM126.924 94.1788C125.61 94.1788 124.552 93.125 124.552 91.8163C124.552 90.5075 125.61 89.4537 126.924 89.4537C128.238 89.4537 129.295 90.5075 129.295 91.8163C129.295 93.108 128.238 94.1788 126.924 94.1788Z" fill="white" fill-opacity="0.4"/>
<path d="M111.21 88.332H108.634C108.565 88.332 108.497 88.383 108.497 88.468V95.1307C108.497 95.1987 108.548 95.2667 108.634 95.2667H111.312C113.291 95.2667 114.878 93.618 114.793 91.6294C114.69 89.7768 113.087 88.332 111.21 88.332ZM111.312 94.1449H109.657V89.4708H111.312C112.558 89.4708 113.633 90.5756 113.633 91.7994C113.616 93.0401 112.558 94.1449 111.312 94.1449Z" fill="white" fill-opacity="0.4"/>
<path d="M121.327 95.369H122.3C122.385 95.369 122.454 95.267 122.419 95.182L119.485 88.2984C119.468 88.2474 119.417 88.2134 119.365 88.2134H118.683C118.632 88.2134 118.581 88.2474 118.563 88.2984L115.629 95.182C115.595 95.267 115.663 95.369 115.748 95.369H116.721C116.772 95.369 116.823 95.335 116.84 95.284L117.676 93.3294H120.372L121.208 95.284C121.242 95.352 121.276 95.369 121.327 95.369ZM118.154 92.2246L119.041 90.151L119.928 92.2246H118.154Z" fill="white" fill-opacity="0.4"/>
<path d="M102.986 88.23C101.007 88.23 99.4033 89.8277 99.4033 91.7993C99.4033 93.7709 101.007 95.3686 102.986 95.3686C104.965 95.3686 106.569 93.7709 106.569 91.7993C106.569 89.8277 104.965 88.23 102.986 88.23ZM102.986 94.1618C101.673 94.1618 100.615 93.108 100.615 91.7993C100.615 90.4905 101.673 89.4367 102.986 89.4367C104.3 89.4367 105.358 90.4905 105.358 91.7993C105.358 93.108 104.3 94.1618 102.986 94.1618Z" fill="white" fill-opacity="0.4"/>
<path d="M96.9122 88.264L93.9434 91.2214L90.9747 88.264C90.9576 88.247 90.9235 88.23 90.8894 88.23H90.5652C90.497 88.23 90.4287 88.281 90.4287 88.366V95.2496C90.4287 95.3176 90.4799 95.3856 90.5652 95.3856H91.5718C91.6401 95.3856 91.7083 95.3346 91.7083 95.2496V90.7795L93.8752 92.9381C93.9264 92.989 94.0117 92.989 94.0628 92.9381L96.2297 90.7795V95.2496C96.2297 95.3176 96.2809 95.3856 96.3662 95.3856H97.3728C97.4411 95.3856 97.5093 95.3346 97.5093 95.2496V88.366C97.5093 88.298 97.4581 88.23 97.3728 88.23H97.0486C96.9804 88.23 96.9463 88.247 96.9122 88.264Z" fill="white" fill-opacity="0.4"/>
<defs>
<filter id="filter0_d_2496_43562" x="27.5896" y="52.0601" width="127.757" height="52.4897" filterUnits="userSpaceOnUse" color-interpolation-filters="sRGB">
<feFlood flood-opacity="0" result="BackgroundImageFix"/>
<feColorMatrix in="SourceAlpha" type="matrix" values="0 0 0 0 0 0 0 0 0 0 0 0 0 0 0 0 0 0 127 0" result="hardAlpha"/>
<feOffset dx="1.5" dy="1.5"/>
<feComposite in2="hardAlpha" operator="out"/>
<feColorMatrix type="matrix" values="0 0 0 0 0 0 0 0 0 0 0 0 0 0 0 0 0 0 0.25 0"/>
<feBlend mode="normal" in2="BackgroundImageFix" result="effect1_dropShadow_2496_43562"/>
<feBlend mode="normal" in="SourceGraphic" in2="effect1_dropShadow_2496_43562" result="shape"/>
</filter>
</defs>
</svg>
